<svg xmlns="http://www.w3.org/2000/svg" version="1.1" xmlns:xlink="http://www.w3.org/1999/xlink" xmlns:svgjs="http://svgjs.dev/svgjs" width="1537" height="740" preserveAspectRatio="none" viewBox="0 0 1537 740"><g mask="url(&quot;#SvgjsMask1030&quot;)" fill="none"><rect width="1537" height="740" x="0" y="0" fill="#0e2a47"></rect><path d="M1389.928,302.65C1415.9,303.639,1445.443,299.608,1457.938,276.817C1470.164,254.516,1456.856,228.15,1442.145,207.403C1430.044,190.338,1410.848,181.002,1389.928,180.905C1368.816,180.807,1348.428,189.251,1336.867,206.916C1324.078,226.456,1319.016,251.531,1330.337,271.956C1341.946,292.902,1365.997,301.738,1389.928,302.65" fill="rgba(28, 83, 142, 0.4)" class="triangle-float3"></path><path d="M721.883,328.385C791.223,323.89,828.559,252.552,858.293,189.749C882.849,137.884,890.607,79.808,863.527,29.215C834.837,-24.387,782.615,-62.304,721.883,-65.106C656.022,-68.145,590.459,-40.974,555.636,15.01C518.893,74.081,518.366,148.217,550.968,209.671C585.81,275.348,647.692,333.194,721.883,328.385" fill="rgba(28, 83, 142, 0.4)" class="triangle-float1"></path><path d="M1307.875,499.552C1384.673,500.103,1442.386,435.839,1477.549,367.562C1509.491,305.54,1509.224,233.862,1476.415,172.294C1441.345,106.483,1382.31,53.673,1307.875,49.157C1225.49,44.158,1138.045,76.325,1099.75,149.44C1063.301,219.031,1102.226,297.628,1142.368,365.156C1181.289,430.63,1231.708,499.005,1307.875,499.552" fill="rgba(28, 83, 142, 0.4)" class="triangle-float2"></path><path d="M982.034,690.046C1018.51,690.235,1057.519,681.097,1075.732,649.493C1093.926,617.921,1081.825,579.857,1063.774,548.203C1045.507,516.17,1018.881,486.626,982.034,485.183C943.056,483.656,907.54,507.348,888.393,541.333C869.592,574.703,869.597,616.116,890.006,648.528C909.225,679.05,945.965,689.859,982.034,690.046" fill="rgba(28, 83, 142, 0.4)" class="triangle-float2"></path><path d="M1232.086,544.278C1307.349,538.79,1347.895,464.199,1384.845,398.401C1420.671,334.605,1458.935,263.537,1426.596,197.905C1391.347,126.367,1311.797,85.838,1232.086,88.378C1156.303,90.793,1096.303,144.263,1057.924,209.653C1018.962,276.037,999.626,355.62,1035.163,423.899C1073.232,497.043,1149.846,550.275,1232.086,544.278" fill="rgba(28, 83, 142, 0.4)" class="triangle-float3"></path><path d="M124.635,787.268C186.141,788.221,243.512,759.783,277.871,708.761C317.205,650.352,343.29,575.358,308.612,514.071C273.582,452.162,195.765,437.338,124.635,437.947C54.833,438.544,-20.535,455.896,-53.967,517.174C-86.463,576.737,-58.017,647.541,-20.592,704.137C12.383,754.004,64.858,786.342,124.635,787.268" fill="rgba(28, 83, 142, 0.4)" class="triangle-float3"></path></g><defs><mask id="SvgjsMask1030"><rect width="1537" height="740" fill="#ffffff"></rect></mask><style>
                @keyframes float1 {
                    0%{transform: translate(0, 0)}
                    50%{transform: translate(-10px, 0)}
                    100%{transform: translate(0, 0)}
                }

                .triangle-float1 {
                    animation: float1 5s infinite;
                }

                @keyframes float2 {
                    0%{transform: translate(0, 0)}
                    50%{transform: translate(-5px, -5px)}
                    100%{transform: translate(0, 0)}
                }

                .triangle-float2 {
                    animation: float2 4s infinite;
                }

                @keyframes float3 {
                    0%{transform: translate(0, 0)}
                    50%{transform: translate(0, -10px)}
                    100%{transform: translate(0, 0)}
                }

                .triangle-float3 {
                    animation: float3 6s infinite;
                }
            </style></defs></svg>